<svg width="600" height="620" viewBox="0 0 600 620" xmlns="http://www.w3.org/2000/svg">
  <!-- Motif hero version nocturne — fond aubergine (#3A1B2E), lanternes amber (#E8B542) -->
  <rect width="600" height="620" fill="#3A1B2E"/>

  <!-- système de tiges -->
  <path d="M295,630 C293,600 291,582 290,545" stroke="#E8B542" stroke-width="3.2" fill="none" stroke-linecap="round" opacity=".7"/>
  <path d="M290,558 C264,532 222,472 162,378" stroke="#E8B542" stroke-width="2.4" fill="none" stroke-linecap="round" opacity=".6"/>
  <path d="M293,550 C322,522 378,462 456,362" stroke="#E8B542" stroke-width="2.4" fill="none" stroke-linecap="round" opacity=".6"/>
  <path d="M162,378 C138,348 108,292 80,218" stroke="#E8B542" stroke-width="1.8" fill="none" stroke-linecap="round" opacity=".48"/>
  <path d="M456,362 C474,332 502,278 528,210" stroke="#E8B542" stroke-width="1.8" fill="none" stroke-linecap="round" opacity=".48"/>
  <path d="M178,445 C158,432 134,424 108,420" stroke="#E8B542" stroke-width="1.3" fill="none" stroke-linecap="round" opacity=".32"/>
  <path d="M418,435 C440,422 462,415 482,412" stroke="#E8B542" stroke-width="1.3" fill="none" stroke-linecap="round" opacity=".32"/>

  <!-- Lanterne centrale grande -->
  <g transform="translate(290,545) scale(1.05)">
    <path d="M0,0 C-52,-18,-75,-60,-50,-100 C-28,-122,0,-132,0,-132" stroke="#E8B542" stroke-width="1.9" fill="none" opacity=".9" stroke-linecap="round"/>
    <path d="M0,0 C52,-18,75,-60,50,-100 C28,-122,0,-132,0,-132" stroke="#E8B542" stroke-width="1.9" fill="none" opacity=".9" stroke-linecap="round"/>
    <path d="M0,0 C-26,-14,-44,-52,-28,-92 C-14,-118,0,-132,0,-132" stroke="#E8B542" stroke-width="1.4" fill="none" opacity=".74" stroke-linecap="round"/>
    <path d="M0,0 C26,-14,44,-52,28,-92 C14,-118,0,-132,0,-132" stroke="#E8B542" stroke-width="1.4" fill="none" opacity=".74" stroke-linecap="round"/>
    <path d="M0,0 C1,-32,0,-82,0,-132" stroke="#E8B542" stroke-width="1.1" fill="none" opacity=".58" stroke-linecap="round"/>
    <path d="M-42,-30 C-15,-38,15,-38,42,-30" stroke="#E8B542" stroke-width="0.95" fill="none" opacity=".55"/>
    <path d="M-60,-56 C-24,-64,24,-64,60,-56" stroke="#E8B542" stroke-width="0.87" fill="none" opacity=".49"/>
    <path d="M-64,-82 C-24,-90,24,-90,64,-82" stroke="#E8B542" stroke-width="0.79" fill="none" opacity=".43"/>
    <path d="M-46,-106 C-18,-113,18,-113,46,-106" stroke="#E8B542" stroke-width="0.71" fill="none" opacity=".37"/>
    <ellipse cx="0" cy="-66" rx="25" ry="27" fill="#E8B542" opacity=".85"/>
    <ellipse cx="-8" cy="-74" rx="7" ry="8" fill="rgba(255,255,255,0.18)"/>
    <circle cx="0" cy="-132" r="3.2" fill="#E8B542" opacity=".55"/>
  </g>

  <!-- Lanterne gauche-milieu -->
  <g transform="translate(162,378) scale(0.68)" opacity="0.88">
    <path d="M0,0 C-52,-18,-75,-60,-50,-100 C-28,-122,0,-132,0,-132" stroke="#F4E8D5" stroke-width="1.9" fill="none" opacity=".8" stroke-linecap="round"/>
    <path d="M0,0 C52,-18,75,-60,50,-100 C28,-122,0,-132,0,-132" stroke="#F4E8D5" stroke-width="1.9" fill="none" opacity=".8" stroke-linecap="round"/>
    <path d="M0,0 C-26,-14,-44,-52,-28,-92 C-14,-118,0,-132,0,-132" stroke="#F4E8D5" stroke-width="1.4" fill="none" opacity=".6" stroke-linecap="round"/>
    <path d="M0,0 C26,-14,44,-52,28,-92 C14,-118,0,-132,0,-132" stroke="#F4E8D5" stroke-width="1.4" fill="none" opacity=".6" stroke-linecap="round"/>
    <path d="M0,0 C1,-32,0,-82,0,-132" stroke="#F4E8D5" stroke-width="1.1" fill="none" opacity=".5" stroke-linecap="round"/>
    <path d="M-42,-30 C-15,-38,15,-38,42,-30" stroke="#F4E8D5" stroke-width="0.95" fill="none" opacity=".45"/>
    <path d="M-60,-56 C-24,-64,24,-64,60,-56" stroke="#F4E8D5" stroke-width="0.87" fill="none" opacity=".4"/>
    <path d="M-64,-82 C-24,-90,24,-90,64,-82" stroke="#F4E8D5" stroke-width="0.79" fill="none" opacity=".35"/>
    <path d="M-46,-106 C-18,-113,18,-113,46,-106" stroke="#F4E8D5" stroke-width="0.71" fill="none" opacity=".3"/>
    <ellipse cx="0" cy="-66" rx="25" ry="27" fill="#E8B542" opacity=".78"/>
    <ellipse cx="-8" cy="-74" rx="7" ry="8" fill="rgba(255,255,255,0.18)"/>
    <circle cx="0" cy="-132" r="3.2" fill="#F4E8D5" opacity=".5"/>
  </g>

  <!-- Lanterne droite-milieu -->
  <g transform="translate(456,362) scale(0.64)" opacity="0.84">
    <path d="M0,0 C-52,-18,-75,-60,-50,-100 C-28,-122,0,-132,0,-132" stroke="#F4E8D5" stroke-width="1.9" fill="none" opacity=".8" stroke-linecap="round"/>
    <path d="M0,0 C52,-18,75,-60,50,-100 C28,-122,0,-132,0,-132" stroke="#F4E8D5" stroke-width="1.9" fill="none" opacity=".8" stroke-linecap="round"/>
    <path d="M0,0 C-26,-14,-44,-52,-28,-92 C-14,-118,0,-132,0,-132" stroke="#F4E8D5" stroke-width="1.4" fill="none" opacity=".6" stroke-linecap="round"/>
    <path d="M0,0 C26,-14,44,-52,28,-92 C14,-118,0,-132,0,-132" stroke="#F4E8D5" stroke-width="1.4" fill="none" opacity=".6" stroke-linecap="round"/>
    <path d="M0,0 C1,-32,0,-82,0,-132" stroke="#F4E8D5" stroke-width="1.1" fill="none" opacity=".5" stroke-linecap="round"/>
    <path d="M-42,-30 C-15,-38,15,-38,42,-30" stroke="#F4E8D5" stroke-width="0.95" fill="none" opacity=".45"/>
    <path d="M-60,-56 C-24,-64,24,-64,60,-56" stroke="#F4E8D5" stroke-width="0.87" fill="none" opacity=".4"/>
    <path d="M-64,-82 C-24,-90,24,-90,64,-82" stroke="#F4E8D5" stroke-width="0.79" fill="none" opacity=".35"/>
    <path d="M-46,-106 C-18,-113,18,-113,46,-106" stroke="#F4E8D5" stroke-width="0.71" fill="none" opacity=".3"/>
    <ellipse cx="0" cy="-66" rx="25" ry="27" fill="#E8B542" opacity=".78"/>
    <ellipse cx="-8" cy="-74" rx="7" ry="8" fill="rgba(255,255,255,0.18)"/>
    <circle cx="0" cy="-132" r="3.2" fill="#F4E8D5" opacity=".5"/>
  </g>

  <!-- Lanterne gauche-haute -->
  <g transform="translate(80,218) scale(0.44)" opacity="0.75">
    <path d="M0,0 C-52,-18,-75,-60,-50,-100 C-28,-122,0,-132,0,-132" stroke="#F4E8D5" stroke-width="1.9" fill="none" opacity=".7" stroke-linecap="round"/>
    <path d="M0,0 C52,-18,75,-60,50,-100 C28,-122,0,-132,0,-132" stroke="#F4E8D5" stroke-width="1.9" fill="none" opacity=".7" stroke-linecap="round"/>
    <path d="M0,0 C-26,-14,-44,-52,-28,-92 C-14,-118,0,-132,0,-132" stroke="#F4E8D5" stroke-width="1.4" fill="none" opacity=".55" stroke-linecap="round"/>
    <path d="M0,0 C26,-14,44,-52,28,-92 C14,-118,0,-132,0,-132" stroke="#F4E8D5" stroke-width="1.4" fill="none" opacity=".55" stroke-linecap="round"/>
    <path d="M0,0 C1,-32,0,-82,0,-132" stroke="#F4E8D5" stroke-width="1.1" fill="none" opacity=".45" stroke-linecap="round"/>
    <path d="M-42,-30 C-15,-38,15,-38,42,-30" stroke="#F4E8D5" stroke-width="0.95" fill="none" opacity=".4"/>
    <path d="M-60,-56 C-24,-64,24,-64,60,-56" stroke="#F4E8D5" stroke-width="0.87" fill="none" opacity=".35"/>
    <path d="M-64,-82 C-24,-90,24,-90,64,-82" stroke="#F4E8D5" stroke-width="0.79" fill="none" opacity=".3"/>
    <ellipse cx="0" cy="-66" rx="25" ry="27" fill="#E8B542" opacity=".65"/>
    <ellipse cx="-8" cy="-74" rx="7" ry="8" fill="rgba(255,255,255,0.15)"/>
    <circle cx="0" cy="-132" r="3.2" fill="#F4E8D5" opacity=".45"/>
  </g>

  <!-- Lanterne droite-haute -->
  <g transform="translate(528,210) scale(0.47)" opacity="0.72">
    <path d="M0,0 C-52,-18,-75,-60,-50,-100 C-28,-122,0,-132,0,-132" stroke="#F4E8D5" stroke-width="1.9" fill="none" opacity=".7" stroke-linecap="round"/>
    <path d="M0,0 C52,-18,75,-60,50,-100 C28,-122,0,-132,0,-132" stroke="#F4E8D5" stroke-width="1.9" fill="none" opacity=".7" stroke-linecap="round"/>
    <path d="M0,0 C-26,-14,-44,-52,-28,-92 C-14,-118,0,-132,0,-132" stroke="#F4E8D5" stroke-width="1.4" fill="none" opacity=".55" stroke-linecap="round"/>
    <path d="M0,0 C26,-14,44,-52,28,-92 C14,-118,0,-132,0,-132" stroke="#F4E8D5" stroke-width="1.4" fill="none" opacity=".55" stroke-linecap="round"/>
    <path d="M0,0 C1,-32,0,-82,0,-132" stroke="#F4E8D5" stroke-width="1.1" fill="none" opacity=".45" stroke-linecap="round"/>
    <path d="M-42,-30 C-15,-38,15,-38,42,-30" stroke="#F4E8D5" stroke-width="0.95" fill="none" opacity=".4"/>
    <path d="M-60,-56 C-24,-64,24,-64,60,-56" stroke="#F4E8D5" stroke-width="0.87" fill="none" opacity=".35"/>
    <ellipse cx="0" cy="-66" rx="25" ry="27" fill="#E8B542" opacity=".65"/>
    <ellipse cx="-8" cy="-74" rx="7" ry="8" fill="rgba(255,255,255,0.15)"/>
    <circle cx="0" cy="-132" r="3.2" fill="#F4E8D5" opacity=".45"/>
  </g>

  <!-- bourgeons épars -->
  <circle cx="172" cy="305" r="3.8" fill="#E8B542" opacity=".28"/>
  <circle cx="464" cy="285" r="3.5" fill="#E8B542" opacity=".25"/>
  <circle cx="92" cy="148" r="3" fill="#F4E8D5" opacity=".22"/>
  <circle cx="536" cy="142" r="2.5" fill="#F4E8D5" opacity=".2"/>
  <circle cx="45" cy="380" r="2.5" fill="#F4E8D5" opacity=".2"/>
  <circle cx="560" cy="480" r="2" fill="#F4E8D5" opacity=".18"/>
</svg>
