<svg width="200" height="200" viewBox="0 0 200 200" xmlns="http://www.w3.org/2000/svg">
  <!-- Physalis lanterne seule — version couleur terracotta / amber -->
  <g transform="translate(100,196) scale(1.3)">
    <!-- ribs extérieurs -->
    <path d="M0,0 C-52,-18,-75,-60,-50,-100 C-28,-122,0,-132,0,-132" stroke="#B84A2E" stroke-width="1.9" fill="none" opacity=".9" stroke-linecap="round"/>
    <path d="M0,0 C52,-18,75,-60,50,-100 C28,-122,0,-132,0,-132" stroke="#B84A2E" stroke-width="1.9" fill="none" opacity=".9" stroke-linecap="round"/>
    <!-- ribs intérieurs -->
    <path d="M0,0 C-26,-14,-44,-52,-28,-92 C-14,-118,0,-132,0,-132" stroke="#B84A2E" stroke-width="1.4" fill="none" opacity=".74" stroke-linecap="round"/>
    <path d="M0,0 C26,-14,44,-52,28,-92 C14,-118,0,-132,0,-132" stroke="#B84A2E" stroke-width="1.4" fill="none" opacity=".74" stroke-linecap="round"/>
    <!-- rib central -->
    <path d="M0,0 C1,-32,0,-82,0,-132" stroke="#B84A2E" stroke-width="1.1" fill="none" opacity=".58" stroke-linecap="round"/>
    <!-- nervures horizontales -->
    <path d="M-42,-30 C-15,-38,15,-38,42,-30" stroke="#B84A2E" stroke-width="0.95" fill="none" opacity=".55"/>
    <path d="M-60,-56 C-24,-64,24,-64,60,-56" stroke="#B84A2E" stroke-width="0.87" fill="none" opacity=".49"/>
    <path d="M-64,-82 C-24,-90,24,-90,64,-82" stroke="#B84A2E" stroke-width="0.79" fill="none" opacity=".43"/>
    <path d="M-46,-106 C-18,-113,18,-113,46,-106" stroke="#B84A2E" stroke-width="0.71" fill="none" opacity=".37"/>
    <!-- baie amber -->
    <ellipse cx="0" cy="-66" rx="25" ry="27" fill="#E8B542" opacity=".92"/>
    <ellipse cx="-8" cy="-74" rx="7" ry="8" fill="rgba(255,255,255,0.25)"/>
    <!-- bouton sommital -->
    <circle cx="0" cy="-132" r="3.2" fill="#B84A2E" opacity=".6"/>
  </g>
</svg>
