<svg width="400" height="500" viewBox="0 0 400 500" xmlns="http://www.w3.org/2000/svg">
  <!-- Gabarit affiche — fond aubergine, motif amber -->
  <rect width="400" height="500" fill="#3A1B2E"/>

  <!-- Hachures diagonales -->
  <g opacity="0.08">
    <pattern id="h2" patternUnits="userSpaceOnUse" width="14" height="14" patternTransform="rotate(45)">
      <line x1="0" y1="0" x2="0" y2="14" stroke="#E8B542" stroke-width="0.5"/>
    </pattern>
    <rect width="400" height="500" fill="url(#h2)"/>
  </g>

  <!-- Branche physalis (3 lanternes) -->
  <g transform="translate(60,480) scale(1.1)" opacity="0.38">
    <path d="M150,300 C148,260 145,235 142,205" stroke="#E8B542" stroke-width="3" fill="none" stroke-linecap="round" opacity=".82"/>
    <path d="M143,225 C118,196 86,150 60,108" stroke="#E8B542" stroke-width="2.2" fill="none" stroke-linecap="round" opacity=".66"/>
    <path d="M145,212 C168,184 204,140 230,96" stroke="#E8B542" stroke-width="2.2" fill="none" stroke-linecap="round" opacity=".66"/>

    <g transform="translate(142,205) scale(0.72)">
      <path d="M0,0 C-52,-18,-75,-60,-50,-100 C-28,-122,0,-132,0,-132" stroke="#E8B542" stroke-width="1.9" fill="none" opacity=".9" stroke-linecap="round"/>
      <path d="M0,0 C52,-18,75,-60,50,-100 C28,-122,0,-132,0,-132" stroke="#E8B542" stroke-width="1.9" fill="none" opacity=".9" stroke-linecap="round"/>
      <path d="M0,0 C-26,-14,-44,-52,-28,-92 C-14,-118,0,-132,0,-132" stroke="#E8B542" stroke-width="1.4" fill="none" opacity=".7" stroke-linecap="round"/>
      <path d="M0,0 C26,-14,44,-52,28,-92 C14,-118,0,-132,0,-132" stroke="#E8B542" stroke-width="1.4" fill="none" opacity=".7" stroke-linecap="round"/>
      <path d="M0,0 C1,-32,0,-82,0,-132" stroke="#E8B542" stroke-width="1.1" fill="none" opacity=".55" stroke-linecap="round"/>
      <path d="M-42,-30 C-15,-38,15,-38,42,-30" stroke="#E8B542" stroke-width="0.95" fill="none" opacity=".5"/>
      <path d="M-60,-56 C-24,-64,24,-64,60,-56" stroke="#E8B542" stroke-width="0.87" fill="none" opacity=".44"/>
      <path d="M-64,-82 C-24,-90,24,-90,64,-82" stroke="#E8B542" stroke-width="0.79" fill="none" opacity=".38"/>
      <ellipse cx="0" cy="-66" rx="25" ry="27" fill="#E8B542" opacity=".88"/>
      <ellipse cx="-8" cy="-74" rx="7" ry="8" fill="rgba(255,255,255,0.2)"/>
      <circle cx="0" cy="-132" r="3.2" fill="#E8B542" opacity=".55"/>
    </g>
    <g transform="translate(60,108) scale(0.5)" opacity="0.9">
      <path d="M0,0 C-52,-18,-75,-60,-50,-100 C-28,-122,0,-132,0,-132" stroke="#E8B542" stroke-width="1.9" fill="none" opacity=".9" stroke-linecap="round"/>
      <path d="M0,0 C52,-18,75,-60,50,-100 C28,-122,0,-132,0,-132" stroke="#E8B542" stroke-width="1.9" fill="none" opacity=".9" stroke-linecap="round"/>
      <path d="M0,0 C1,-32,0,-82,0,-132" stroke="#E8B542" stroke-width="1.1" fill="none" opacity=".5" stroke-linecap="round"/>
      <path d="M-42,-30 C-15,-38,15,-38,42,-30" stroke="#E8B542" stroke-width="0.95" fill="none" opacity=".45"/>
      <path d="M-60,-56 C-24,-64,24,-64,60,-56" stroke="#E8B542" stroke-width="0.87" fill="none" opacity=".4"/>
      <ellipse cx="0" cy="-66" rx="25" ry="27" fill="#E8B542" opacity=".85"/>
      <ellipse cx="-8" cy="-74" rx="7" ry="8" fill="rgba(255,255,255,0.18)"/>
      <circle cx="0" cy="-132" r="3.2" fill="#E8B542" opacity=".5"/>
    </g>
    <g transform="translate(230,96) scale(0.46)" opacity="0.85">
      <path d="M0,0 C-52,-18,-75,-60,-50,-100 C-28,-122,0,-132,0,-132" stroke="#E8B542" stroke-width="1.9" fill="none" opacity=".9" stroke-linecap="round"/>
      <path d="M0,0 C52,-18,75,-60,50,-100 C28,-122,0,-132,0,-132" stroke="#E8B542" stroke-width="1.9" fill="none" opacity=".9" stroke-linecap="round"/>
      <path d="M0,0 C1,-32,0,-82,0,-132" stroke="#E8B542" stroke-width="1.1" fill="none" opacity=".5" stroke-linecap="round"/>
      <path d="M-42,-30 C-15,-38,15,-38,42,-30" stroke="#E8B542" stroke-width="0.95" fill="none" opacity=".45"/>
      <ellipse cx="0" cy="-66" rx="25" ry="27" fill="#E8B542" opacity=".82"/>
      <ellipse cx="-8" cy="-74" rx="7" ry="8" fill="rgba(255,255,255,0.18)"/>
      <circle cx="0" cy="-132" r="3.2" fill="#E8B542" opacity=".5"/>
    </g>
  </g>

  <!-- Numéro -->
  <text x="24" y="48" fill="#F4E8D5" opacity="0.5" font-family="'Courier New', monospace" font-size="12" letter-spacing="2px">№ 01</text>

  <!-- Zone titre -->
  <text x="24" y="442" fill="#F4E8D5" font-family="Georgia, serif" font-size="42" font-style="italic" letter-spacing="-0.02em">Titre du spectacle</text>
  <text x="24" y="470" fill="#E8B542" opacity="0.9" font-family="'Courier New', monospace" font-size="11" letter-spacing="2px">SOUS-TITRE · DATE · LIEU</text>

  <line x1="24" y1="482" x2="376" y2="482" stroke="#F4E8D5" stroke-width="0.5" opacity="0.2"/>

  <!-- Logo mark -->
  <g transform="translate(360,488) scale(0.18)">
    <path d="M0,0 C-52,-18,-75,-60,-50,-100 C-28,-122,0,-132,0,-132" stroke="#F4E8D5" stroke-width="3" fill="none"/>
    <path d="M0,0 C52,-18,75,-60,50,-100 C28,-122,0,-132,0,-132" stroke="#F4E8D5" stroke-width="3" fill="none"/>
    <path d="M0,0 C1,-32,0,-82,0,-132" stroke="#F4E8D5" stroke-width="2" fill="none"/>
    <path d="M-42,-30 C-15,-38,15,-38,42,-30" stroke="#F4E8D5" stroke-width="2.2" fill="none"/>
    <ellipse cx="0" cy="-66" rx="22" ry="24" fill="#E8B542"/>
  </g>
</svg>
